<svg width="100" height="100" viewBox="0 0 100 100" fill="none" xmlns="http://www.w3.org/2000/svg">
<rect width="100" height="100" rx="10" fill="#FFE9D6"/>
<g clip-path="url(#clip0_130_31)">
<path d="M68.4422 67.8845H64.8356V45.8356C64.8356 45.5276 64.5859 45.2778 64.2778 45.2778H58.3288C58.0207 45.2778 57.771 45.5276 57.771 45.8356V67.8845H53.5323V52.3796C53.5323 52.0716 53.2826 51.8218 52.9745 51.8218H47.0255C46.7174 51.8218 46.4677 52.0716 46.4677 52.3796V67.8845H42.229V55.3541C42.229 55.0461 41.9793 54.7964 41.6712 54.7964H35.7222C35.4141 54.7964 35.1644 55.0461 35.1644 55.3541V67.8844H31.5578C31.2497 67.8844 31 68.1341 31 68.4421C31 68.7501 31.2497 68.9999 31.5578 68.9999H68.4422C68.7503 68.9999 69 68.7501 69 68.4421C68.9999 68.1341 68.7503 67.8845 68.4422 67.8845ZM41.1135 67.8845H36.2798V55.9119H41.1135V67.8845ZM52.4169 67.8845H47.5832V52.9373H52.4169V67.8845ZM63.7202 67.8845H58.8865V46.3933H63.7202V67.8845Z" fill="#FF7600"/>
<path d="M67.2194 31.4376C66.8435 31.1057 66.3432 30.9511 65.8459 31.0136L61.0866 31.6086C60.1418 31.7266 59.4512 32.6135 59.5694 33.5592C59.6888 34.515 60.5632 35.1961 61.5202 35.0766L61.9085 35.0281C56.0671 41.801 49.1227 45.3013 44.2155 47.0604C38.0968 49.254 33.3344 49.4416 33.288 49.4432C32.3259 49.4732 31.5668 50.2805 31.5959 51.2427C31.6247 52.193 32.3916 52.9374 33.342 52.9374C33.3596 52.9374 33.3774 52.9372 33.3956 52.9366C33.6073 52.9302 38.6557 52.7519 45.3069 50.382C49.0458 49.0496 52.5641 47.2809 55.7638 45.125C56.0192 44.953 56.0868 44.6063 55.9146 44.3509C55.7425 44.0953 55.3959 44.0279 55.1404 44.2C52.0182 46.3038 48.5837 48.0302 44.9324 49.3312C38.4447 51.6429 33.5662 51.8154 33.3622 51.8216L33.342 51.8219C32.9985 51.8219 32.7212 51.5527 32.7108 51.209C32.7003 50.8609 32.9749 50.5689 33.3231 50.558C33.3718 50.5565 38.2701 50.3767 44.5919 48.1104C49.8881 46.2118 57.498 42.3352 63.6755 34.6488C63.983 34.2661 63.6579 33.685 63.1717 33.746L61.3821 33.9697C61.0719 34.008 60.7706 33.8048 60.6918 33.5018C60.5971 33.1372 60.8518 32.762 61.2251 32.7152L65.9846 32.1203C66.3562 32.0733 66.6949 32.3737 66.6949 32.7475V37.5068C66.6949 37.8553 66.4114 38.1389 66.0628 38.1389C65.7142 38.1389 65.4307 37.8554 65.4307 37.5068V36.064C65.4307 35.8361 65.2833 35.6229 65.0701 35.5424C64.8499 35.4592 64.5897 35.529 64.4408 35.7113C62.3577 38.2637 59.9858 40.5734 57.3909 42.5762C57.1471 42.7644 57.1019 43.1146 57.2901 43.3585C57.4784 43.6024 57.8287 43.6474 58.0725 43.4593C60.3328 41.7148 62.428 39.7434 64.317 37.5855C64.3583 38.5128 65.1256 39.2545 66.0629 39.2545C67.0264 39.2545 67.8104 38.4705 67.8104 37.5069V32.7477C67.8103 32.2467 67.595 31.7691 67.2194 31.4376Z" fill="#FF7600"/>
</g>
<defs>
<clipPath id="clip0_130_31">
<rect width="38" height="38" fill="white" transform="translate(31 31)"/>
</clipPath>
</defs>
</svg>
