<svg width="286" height="125" viewBox="0 0 286 125" fill="none" xmlns="http://www.w3.org/2000/svg">
<g filter="url(#filter0_d_223_15)">
<rect x="34" y="26" width="218" height="57" rx="7" fill="white"/>
</g>
<path d="M111.41 47.832V59H109.17V54.248H104.386V59H102.146V47.832H104.386V52.424H109.17V47.832H111.41ZM121.983 50.136V59H119.727V57.88C119.439 58.264 119.06 58.568 118.591 58.792C118.132 59.0053 117.631 59.112 117.087 59.112C116.394 59.112 115.78 58.968 115.247 58.68C114.714 58.3813 114.292 57.9493 113.983 57.384C113.684 56.808 113.535 56.1253 113.535 55.336V50.136H115.775V55.016C115.775 55.72 115.951 56.264 116.303 56.648C116.655 57.0213 117.135 57.208 117.743 57.208C118.362 57.208 118.847 57.0213 119.199 56.648C119.551 56.264 119.727 55.72 119.727 55.016V50.136H121.983ZM126.433 51.432C126.721 51.0053 127.116 50.6587 127.617 50.392C128.129 50.1253 128.71 49.992 129.361 49.992C130.118 49.992 130.801 50.1787 131.409 50.552C132.028 50.9253 132.513 51.4587 132.865 52.152C133.228 52.8347 133.409 53.6293 133.409 54.536C133.409 55.4427 133.228 56.248 132.865 56.952C132.513 57.6453 132.028 58.184 131.409 58.568C130.801 58.952 130.118 59.144 129.361 59.144C128.7 59.144 128.118 59.016 127.617 58.76C127.126 58.4933 126.732 58.152 126.433 57.736V59H124.193V47.16H126.433V51.432ZM131.121 54.536C131.121 54.0027 131.009 53.544 130.785 53.16C130.572 52.7653 130.284 52.4667 129.921 52.264C129.569 52.0613 129.185 51.96 128.769 51.96C128.364 51.96 127.98 52.0667 127.617 52.28C127.265 52.4827 126.977 52.7813 126.753 53.176C126.54 53.5707 126.433 54.0347 126.433 54.568C126.433 55.1013 126.54 55.5653 126.753 55.96C126.977 56.3547 127.265 56.6587 127.617 56.872C127.98 57.0747 128.364 57.176 128.769 57.176C129.185 57.176 129.569 57.0693 129.921 56.856C130.284 56.6427 130.572 56.3387 130.785 55.944C131.009 55.5493 131.121 55.08 131.121 54.536ZM143.405 50.136V59H141.149V57.88C140.861 58.264 140.482 58.568 140.013 58.792C139.554 59.0053 139.053 59.112 138.509 59.112C137.815 59.112 137.202 58.968 136.669 58.68C136.135 58.3813 135.714 57.9493 135.405 57.384C135.106 56.808 134.957 56.1253 134.957 55.336V50.136H137.197V55.016C137.197 55.72 137.373 56.264 137.725 56.648C138.077 57.0213 138.557 57.208 139.165 57.208C139.783 57.208 140.269 57.0213 140.621 56.648C140.973 56.264 141.149 55.72 141.149 55.016V50.136H143.405ZM150.527 50.008C151.583 50.008 152.436 50.344 153.087 51.016C153.738 51.6773 154.063 52.6053 154.063 53.8V59H151.823V54.104C151.823 53.4 151.647 52.8613 151.295 52.488C150.943 52.104 150.463 51.912 149.855 51.912C149.236 51.912 148.746 52.104 148.383 52.488C148.031 52.8613 147.855 53.4 147.855 54.104V59H145.615V50.136H147.855V51.24C148.154 50.856 148.532 50.5573 148.991 50.344C149.46 50.12 149.972 50.008 150.527 50.008ZM159.665 49.992C160.326 49.992 160.908 50.1253 161.409 50.392C161.91 50.648 162.305 50.984 162.593 51.4V50.136H164.849V59.064C164.849 59.8853 164.684 60.616 164.353 61.256C164.022 61.9067 163.526 62.4187 162.865 62.792C162.204 63.176 161.404 63.368 160.465 63.368C159.206 63.368 158.172 63.0747 157.361 62.488C156.561 61.9013 156.108 61.1013 156.001 60.088H158.225C158.342 60.4933 158.593 60.8133 158.977 61.048C159.372 61.2933 159.846 61.416 160.401 61.416C161.052 61.416 161.58 61.2187 161.985 60.824C162.39 60.44 162.593 59.8533 162.593 59.064V57.688C162.305 58.104 161.905 58.4507 161.393 58.728C160.892 59.0053 160.316 59.144 159.665 59.144C158.918 59.144 158.236 58.952 157.617 58.568C156.998 58.184 156.508 57.6453 156.145 56.952C155.793 56.248 155.617 55.4427 155.617 54.536C155.617 53.64 155.793 52.8453 156.145 52.152C156.508 51.4587 156.993 50.9253 157.601 50.552C158.22 50.1787 158.908 49.992 159.665 49.992ZM162.593 54.568C162.593 54.024 162.486 53.56 162.273 53.176C162.06 52.7813 161.772 52.4827 161.409 52.28C161.046 52.0667 160.657 51.96 160.241 51.96C159.825 51.96 159.441 52.0613 159.089 52.264C158.737 52.4667 158.449 52.7653 158.225 53.16C158.012 53.544 157.905 54.0027 157.905 54.536C157.905 55.0693 158.012 55.5387 158.225 55.944C158.449 56.3387 158.737 56.6427 159.089 56.856C159.452 57.0693 159.836 57.176 160.241 57.176C160.657 57.176 161.046 57.0747 161.409 56.872C161.772 56.6587 162.06 56.36 162.273 55.976C162.486 55.5813 162.593 55.112 162.593 54.568ZM168.173 49.08C167.778 49.08 167.447 48.9573 167.181 48.712C166.925 48.456 166.797 48.1413 166.797 47.768C166.797 47.3947 166.925 47.0853 167.181 46.84C167.447 46.584 167.778 46.456 168.173 46.456C168.567 46.456 168.893 46.584 169.149 46.84C169.415 47.0853 169.549 47.3947 169.549 47.768C169.549 48.1413 169.415 48.456 169.149 48.712C168.893 48.9573 168.567 49.08 168.173 49.08ZM169.277 50.136V59H167.037V50.136H169.277ZM181.606 59L177.542 54.024V59H175.302V47.832H177.542V52.84L181.606 47.832H184.31L179.702 53.368L184.438 59H181.606ZM185.336 54.536C185.336 53.64 185.512 52.8453 185.864 52.152C186.226 51.4587 186.712 50.9253 187.32 50.552C187.938 50.1787 188.626 49.992 189.384 49.992C190.045 49.992 190.621 50.1253 191.112 50.392C191.613 50.6587 192.013 50.9947 192.312 51.4V50.136H194.568V59H192.312V57.704C192.024 58.12 191.624 58.4667 191.112 58.744C190.61 59.0107 190.029 59.144 189.368 59.144C188.621 59.144 187.938 58.952 187.32 58.568C186.712 58.184 186.226 57.6453 185.864 56.952C185.512 56.248 185.336 55.4427 185.336 54.536ZM192.312 54.568C192.312 54.024 192.205 53.56 191.992 53.176C191.778 52.7813 191.49 52.4827 191.128 52.28C190.765 52.0667 190.376 51.96 189.96 51.96C189.544 51.96 189.16 52.0613 188.808 52.264C188.456 52.4667 188.168 52.7653 187.944 53.16C187.73 53.544 187.624 54.0027 187.624 54.536C187.624 55.0693 187.73 55.5387 187.944 55.944C188.168 56.3387 188.456 56.6427 188.808 56.856C189.17 57.0693 189.554 57.176 189.96 57.176C190.376 57.176 190.765 57.0747 191.128 56.872C191.49 56.6587 191.778 56.36 191.992 55.976C192.205 55.5813 192.312 55.112 192.312 54.568ZM207.764 50.008C208.852 50.008 209.726 50.344 210.388 51.016C211.06 51.6773 211.396 52.6053 211.396 53.8V59H209.156V54.104C209.156 53.4107 208.98 52.8827 208.628 52.52C208.276 52.1467 207.796 51.96 207.188 51.96C206.58 51.96 206.094 52.1467 205.732 52.52C205.38 52.8827 205.204 53.4107 205.204 54.104V59H202.964V54.104C202.964 53.4107 202.788 52.8827 202.436 52.52C202.084 52.1467 201.604 51.96 200.996 51.96C200.377 51.96 199.886 52.1467 199.524 52.52C199.172 52.8827 198.996 53.4107 198.996 54.104V59H196.756V50.136H198.996V51.208C199.284 50.8347 199.652 50.5413 200.1 50.328C200.558 50.1147 201.06 50.008 201.604 50.008C202.297 50.008 202.916 50.1573 203.46 50.456C204.004 50.744 204.425 51.16 204.724 51.704C205.012 51.192 205.428 50.7813 205.972 50.472C206.526 50.1627 207.124 50.008 207.764 50.008ZM214.657 49.08C214.263 49.08 213.932 48.9573 213.665 48.712C213.409 48.456 213.281 48.1413 213.281 47.768C213.281 47.3947 213.409 47.0853 213.665 46.84C213.932 46.584 214.263 46.456 214.657 46.456C215.052 46.456 215.377 46.584 215.633 46.84C215.9 47.0853 216.033 47.3947 216.033 47.768C216.033 48.1413 215.9 48.456 215.633 48.712C215.377 48.9573 215.052 49.08 214.657 49.08ZM215.761 50.136V59H213.521V50.136H215.761Z" fill="#282C6D"/>
<path d="M76.7365 56.6155C76.4251 56.4607 74.4006 55.5318 74.0891 55.377C73.7777 55.2222 73.4662 55.2222 73.1548 55.5318C72.8433 55.8414 72.2204 56.7703 71.9089 57.0799C71.7532 57.3895 71.4417 57.3895 71.1303 57.2347C70.0402 56.7703 68.9501 56.1511 68.0157 55.377C67.237 54.603 66.4584 53.6742 65.8355 52.7453C65.6797 52.4357 65.8355 52.1261 65.9912 51.9713C66.1469 51.8165 66.3026 51.5069 66.6141 51.3521C66.7698 51.1973 66.9256 50.8876 66.9256 50.7328C67.0813 50.578 67.0813 50.2684 66.9256 50.1136C66.7698 49.9588 65.9912 48.1011 65.6797 47.3271C65.524 46.2434 65.2125 46.2434 64.9011 46.2434H64.1224C63.811 46.2434 63.3438 46.5531 63.1881 46.7079C62.2537 47.6367 61.7865 48.7203 61.7865 49.9588C61.9422 51.3521 62.4094 52.7453 63.3438 53.9838C65.0568 56.4607 67.237 58.4732 69.8844 59.7116C70.6631 60.0212 71.286 60.3308 72.0646 60.4856C72.8433 60.7953 73.6219 60.7953 74.5563 60.6404C75.6464 60.4856 76.5808 59.7116 77.2037 58.7828C77.5152 58.1635 77.5152 57.5443 77.3595 56.9251L76.7365 56.6155ZM80.6298 42.5281C74.5563 36.4906 64.7453 36.4906 58.6719 42.5281C53.6885 47.4819 52.7542 55.0674 56.1802 61.1049L54 69L62.2537 66.8327C64.5896 68.0712 67.0813 68.6904 69.573 68.6904C78.1381 68.6904 84.9902 61.8789 84.9902 53.3645C85.1459 49.3396 83.4329 45.4694 80.6298 42.5281ZM76.4251 64.201C74.4006 65.4394 72.0646 66.2135 69.573 66.2135C67.237 66.2135 65.0568 65.5943 63.0323 64.5106L62.5651 64.201L57.7375 65.4395L58.9834 60.7953L58.6719 60.3308C54.9344 54.1386 56.8031 46.3983 62.8766 42.5281C68.9501 38.6579 76.7365 40.6704 80.474 46.5531C84.2116 52.5905 82.4985 60.4856 76.4251 64.201Z" fill="#282C6D"/>
<defs>
<filter id="filter0_d_223_15" x="0" y="0" width="286" height="125" filterUnits="userSpaceOnUse" color-interpolation-filters="sRGB">
<feFlood flood-opacity="0" result="BackgroundImageFix"/>
<feColorMatrix in="SourceAlpha" type="matrix" values="0 0 0 0 0 0 0 0 0 0 0 0 0 0 0 0 0 0 127 0" result="hardAlpha"/>
<feOffset dy="8"/>
<feGaussianBlur stdDeviation="17"/>
<feComposite in2="hardAlpha" operator="out"/>
<feColorMatrix type="matrix" values="0 0 0 0 0.156863 0 0 0 0 0.172549 0 0 0 0 0.427451 0 0 0 0.31 0"/>
<feBlend mode="normal" in2="BackgroundImageFix" result="effect1_dropShadow_223_15"/>
<feBlend mode="normal" in="SourceGraphic" in2="effect1_dropShadow_223_15" result="shape"/>
</filter>
</defs>
</svg>
