<svg width="72" height="72" viewBox="0 0 72 72" fill="none" xmlns="http://www.w3.org/2000/svg">
<g filter="url(#filter0_d_130_13)">
<circle cx="36" cy="32" r="22" fill="white"/>
</g>
<path d="M40.163 27.095C39.985 27.095 39.8109 27.1478 39.6629 27.2467C39.5149 27.3456 39.3996 27.4861 39.3315 27.6506C39.2633 27.815 39.2455 27.996 39.2803 28.1706C39.315 28.3452 39.4007 28.5055 39.5266 28.6314C39.6524 28.7573 39.8128 28.843 39.9874 28.8777C40.162 28.9124 40.3429 28.8946 40.5074 28.8265C40.6718 28.7584 40.8124 28.643 40.9113 28.495C41.0102 28.347 41.063 28.173 41.063 27.995C41.063 27.7563 40.9681 27.5274 40.7994 27.3586C40.6306 27.1898 40.4017 27.095 40.163 27.095ZM43.613 28.91C43.5984 28.2877 43.4818 27.6721 43.268 27.0875C43.0773 26.5873 42.7804 26.1345 42.398 25.76C42.0266 25.3756 41.5726 25.0806 41.0705 24.8975C40.4875 24.6771 39.8711 24.5579 39.248 24.545C38.453 24.5 38.198 24.5 36.158 24.5C34.118 24.5 33.863 24.5 33.068 24.545C32.4448 24.5579 31.8285 24.6771 31.2455 24.8975C30.7442 25.0825 30.2907 25.3772 29.918 25.76C29.5335 26.1314 29.2386 26.5853 29.0555 27.0875C28.8351 27.6705 28.7159 28.2869 28.703 28.91C28.658 29.705 28.658 29.96 28.658 32C28.658 34.04 28.658 34.295 28.703 35.09C28.7159 35.7131 28.8351 36.3295 29.0555 36.9125C29.2386 37.4147 29.5335 37.8686 29.918 38.24C30.2907 38.6228 30.7442 38.9175 31.2455 39.1025C31.8285 39.3229 32.4448 39.4421 33.068 39.455C33.863 39.5 34.118 39.5 36.158 39.5C38.198 39.5 38.453 39.5 39.248 39.455C39.8711 39.4421 40.4875 39.3229 41.0705 39.1025C41.5726 38.9194 42.0266 38.6244 42.398 38.24C42.7821 37.8669 43.0792 37.4136 43.268 36.9125C43.4818 36.3279 43.5984 35.7123 43.613 35.09C43.613 34.295 43.658 34.04 43.658 32C43.658 29.96 43.658 29.705 43.613 28.91ZM42.263 35C42.2575 35.4761 42.1713 35.9478 42.008 36.395C41.8882 36.7214 41.6959 37.0163 41.4455 37.2575C41.2022 37.5054 40.9079 37.6973 40.583 37.82C40.1357 37.9833 39.664 38.0695 39.188 38.075C38.438 38.1125 38.1605 38.12 36.188 38.12C34.2155 38.12 33.938 38.12 33.188 38.075C32.6936 38.0843 32.2014 38.0081 31.733 37.85C31.4223 37.7211 31.1415 37.5296 30.908 37.2875C30.659 37.0466 30.4691 36.7514 30.353 36.425C30.1699 35.9714 30.0683 35.489 30.053 35C30.053 34.25 30.008 33.9725 30.008 32C30.008 30.0275 30.008 29.75 30.053 29C30.0563 28.5133 30.1452 28.031 30.3155 27.575C30.4475 27.2584 30.6502 26.9762 30.908 26.75C31.1358 26.4921 31.4174 26.2873 31.733 26.15C32.1901 25.985 32.672 25.8988 33.158 25.895C33.908 25.895 34.1855 25.85 36.158 25.85C38.1305 25.85 38.408 25.85 39.158 25.895C39.634 25.9005 40.1057 25.9867 40.553 26.15C40.8938 26.2765 41.1997 26.4821 41.4455 26.75C41.6912 26.9804 41.8833 27.262 42.008 27.575C42.1746 28.0317 42.2609 28.5138 42.263 29C42.3005 29.75 42.308 30.0275 42.308 32C42.308 33.9725 42.3005 34.25 42.263 35ZM36.158 28.1525C35.3973 28.154 34.6542 28.3809 34.0224 28.8046C33.3907 29.2282 32.8987 29.8296 32.6087 30.5328C32.3186 31.236 32.2435 32.0093 32.3928 32.7552C32.5421 33.501 32.9091 34.1859 33.4475 34.7232C33.9859 35.2606 34.6715 35.6263 35.4176 35.7741C36.1637 35.922 36.937 35.8453 37.6396 35.5539C38.3422 35.2625 38.9426 34.7693 39.3651 34.1368C39.7875 33.5042 40.013 32.7606 40.013 32C40.014 31.4938 39.9149 30.9925 39.7214 30.5247C39.5279 30.057 39.2439 29.6321 38.8856 29.2745C38.5273 28.917 38.1019 28.6338 37.6338 28.4412C37.1657 28.2486 36.6641 28.1505 36.158 28.1525ZM36.158 34.4975C35.664 34.4975 35.1811 34.351 34.7704 34.0766C34.3597 33.8022 34.0396 33.4121 33.8506 32.9558C33.6615 32.4994 33.6121 31.9972 33.7084 31.5128C33.8048 31.0283 34.0427 30.5833 34.392 30.234C34.7412 29.8847 35.1863 29.6469 35.6707 29.5505C36.1552 29.4541 36.6574 29.5036 37.1137 29.6926C37.5701 29.8816 37.9601 30.2018 38.2346 30.6125C38.509 31.0232 38.6555 31.506 38.6555 32C38.6555 32.328 38.5909 32.6527 38.4653 32.9558C38.3398 33.2588 38.1559 33.5341 37.924 33.766C37.692 33.9979 37.4167 34.1819 37.1137 34.3074C36.8107 34.4329 36.4859 34.4975 36.158 34.4975Z" fill="#282C6D"/>
<defs>
<filter id="filter0_d_130_13" x="0" y="0" width="72" height="72" filterUnits="userSpaceOnUse" color-interpolation-filters="sRGB">
<feFlood flood-opacity="0" result="BackgroundImageFix"/>
<feColorMatrix in="SourceAlpha" type="matrix" values="0 0 0 0 0 0 0 0 0 0 0 0 0 0 0 0 0 0 127 0" result="hardAlpha"/>
<feOffset dy="4"/>
<feGaussianBlur stdDeviation="7"/>
<feColorMatrix type="matrix" values="0 0 0 0 0 0 0 0 0 0 0 0 0 0 0 0 0 0 0.15 0"/>
<feBlend mode="normal" in2="BackgroundImageFix" result="effect1_dropShadow_130_13"/>
<feBlend mode="normal" in="SourceGraphic" in2="effect1_dropShadow_130_13" result="shape"/>
</filter>
</defs>
</svg>
