<svg width="189" height="42" viewBox="0 0 189 42" fill="none" xmlns="http://www.w3.org/2000/svg">
<path d="M51.016 18.624C51.448 18.016 52.04 17.512 52.792 17.112C53.56 16.696 54.432 16.488 55.408 16.488C56.544 16.488 57.568 16.768 58.48 17.328C59.408 17.888 60.136 18.688 60.664 19.728C61.208 20.752 61.48 21.944 61.48 23.304C61.48 24.664 61.208 25.872 60.664 26.928C60.136 27.968 59.408 28.776 58.48 29.352C57.568 29.928 56.544 30.216 55.408 30.216C54.432 30.216 53.568 30.016 52.816 29.616C52.08 29.216 51.48 28.712 51.016 28.104V36.336H47.656V16.704H51.016V18.624ZM58.048 23.304C58.048 22.504 57.88 21.816 57.544 21.24C57.224 20.648 56.792 20.2 56.248 19.896C55.72 19.592 55.144 19.44 54.52 19.44C53.912 19.44 53.336 19.6 52.792 19.92C52.264 20.224 51.832 20.672 51.496 21.264C51.176 21.856 51.016 22.552 51.016 23.352C51.016 24.152 51.176 24.848 51.496 25.44C51.832 26.032 52.264 26.488 52.792 26.808C53.336 27.112 53.912 27.264 54.52 27.264C55.144 27.264 55.72 27.104 56.248 26.784C56.792 26.464 57.224 26.008 57.544 25.416C57.88 24.824 58.048 24.12 58.048 23.304ZM65.6256 15.12C65.0336 15.12 64.5376 14.936 64.1376 14.568C63.7536 14.184 63.5616 13.712 63.5616 13.152C63.5616 12.592 63.7536 12.128 64.1376 11.76C64.5376 11.376 65.0336 11.184 65.6256 11.184C66.2176 11.184 66.7056 11.376 67.0896 11.76C67.4896 12.128 67.6896 12.592 67.6896 13.152C67.6896 13.712 67.4896 14.184 67.0896 14.568C66.7056 14.936 66.2176 15.12 65.6256 15.12ZM67.2816 16.704V30H63.9216V16.704H67.2816ZM77.9693 16.512C79.5533 16.512 80.8333 17.016 81.8093 18.024C82.7853 19.016 83.2733 20.408 83.2733 22.2V30H79.9133V22.656C79.9133 21.6 79.6493 20.792 79.1213 20.232C78.5933 19.656 77.8733 19.368 76.9613 19.368C76.0333 19.368 75.2973 19.656 74.7533 20.232C74.2253 20.792 73.9613 21.6 73.9613 22.656V30H70.6013V16.704H73.9613V18.36C74.4093 17.784 74.9773 17.336 75.6653 17.016C76.3693 16.68 77.1373 16.512 77.9693 16.512ZM90.3805 19.464V25.896C90.3805 26.344 90.4845 26.672 90.6925 26.88C90.9165 27.072 91.2845 27.168 91.7965 27.168H93.3565V30H91.2445C88.4125 30 86.9965 28.624 86.9965 25.872V19.464H85.4125V16.704H86.9965V13.416H90.3805V16.704H93.3565V19.464H90.3805ZM108.325 16.704V30H104.941V28.32C104.509 28.896 103.941 29.352 103.237 29.688C102.549 30.008 101.797 30.168 100.981 30.168C99.9412 30.168 99.0212 29.952 98.2212 29.52C97.4212 29.072 96.7892 28.424 96.3252 27.576C95.8772 26.712 95.6532 25.688 95.6532 24.504V16.704H99.0132V24.024C99.0132 25.08 99.2772 25.896 99.8052 26.472C100.333 27.032 101.053 27.312 101.965 27.312C102.893 27.312 103.621 27.032 104.149 26.472C104.677 25.896 104.941 25.08 104.941 24.024V16.704H108.325ZM110.776 23.304C110.776 21.96 111.04 20.768 111.568 19.728C112.112 18.688 112.848 17.888 113.776 17.328C114.704 16.768 115.736 16.488 116.872 16.488C117.736 16.488 118.56 16.68 119.344 17.064C120.128 17.432 120.752 17.928 121.216 18.552V12.24H124.624V30H121.216V28.032C120.8 28.688 120.216 29.216 119.464 29.616C118.712 30.016 117.84 30.216 116.848 30.216C115.728 30.216 114.704 29.928 113.776 29.352C112.848 28.776 112.112 27.968 111.568 26.928C111.04 25.872 110.776 24.664 110.776 23.304ZM121.24 23.352C121.24 22.536 121.08 21.84 120.76 21.264C120.44 20.672 120.008 20.224 119.464 19.92C118.92 19.6 118.336 19.44 117.712 19.44C117.088 19.44 116.512 19.592 115.984 19.896C115.456 20.2 115.024 20.648 114.688 21.24C114.368 21.816 114.208 22.504 114.208 23.304C114.208 24.104 114.368 24.808 114.688 25.416C115.024 26.008 115.456 26.464 115.984 26.784C116.528 27.104 117.104 27.264 117.712 27.264C118.336 27.264 118.92 27.112 119.464 26.808C120.008 26.488 120.44 26.04 120.76 25.464C121.08 24.872 121.24 24.168 121.24 23.352ZM129.61 15.12C129.018 15.12 128.522 14.936 128.122 14.568C127.738 14.184 127.546 13.712 127.546 13.152C127.546 12.592 127.738 12.128 128.122 11.76C128.522 11.376 129.018 11.184 129.61 11.184C130.202 11.184 130.69 11.376 131.074 11.76C131.474 12.128 131.674 12.592 131.674 13.152C131.674 13.712 131.474 14.184 131.074 14.568C130.69 14.936 130.202 15.12 129.61 15.12ZM131.266 16.704V30H127.906V16.704H131.266ZM139.794 16.488C140.786 16.488 141.658 16.688 142.41 17.088C143.162 17.472 143.754 17.976 144.186 18.6V16.704H147.57V30.096C147.57 31.328 147.322 32.424 146.826 33.384C146.33 34.36 145.586 35.128 144.594 35.688C143.602 36.264 142.402 36.552 140.994 36.552C139.106 36.552 137.554 36.112 136.338 35.232C135.138 34.352 134.458 33.152 134.298 31.632H137.634C137.81 32.24 138.186 32.72 138.762 33.072C139.354 33.44 140.066 33.624 140.898 33.624C141.874 33.624 142.666 33.328 143.274 32.736C143.882 32.16 144.186 31.28 144.186 30.096V28.032C143.754 28.656 143.154 29.176 142.386 29.592C141.634 30.008 140.77 30.216 139.794 30.216C138.674 30.216 137.65 29.928 136.722 29.352C135.794 28.776 135.058 27.968 134.514 26.928C133.986 25.872 133.722 24.664 133.722 23.304C133.722 21.96 133.986 20.768 134.514 19.728C135.058 18.688 135.786 17.888 136.698 17.328C137.626 16.768 138.658 16.488 139.794 16.488ZM144.186 23.352C144.186 22.536 144.026 21.84 143.706 21.264C143.386 20.672 142.954 20.224 142.41 19.92C141.866 19.6 141.282 19.44 140.658 19.44C140.034 19.44 139.458 19.592 138.93 19.896C138.402 20.2 137.97 20.648 137.634 21.24C137.314 21.816 137.154 22.504 137.154 23.304C137.154 24.104 137.314 24.808 137.634 25.416C137.97 26.008 138.402 26.464 138.93 26.784C139.474 27.104 140.05 27.264 140.658 27.264C141.282 27.264 141.866 27.112 142.41 26.808C142.954 26.488 143.386 26.04 143.706 25.464C144.026 24.872 144.186 24.168 144.186 23.352ZM152.555 15.12C151.963 15.12 151.467 14.936 151.067 14.568C150.683 14.184 150.491 13.712 150.491 13.152C150.491 12.592 150.683 12.128 151.067 11.76C151.467 11.376 151.963 11.184 152.555 11.184C153.147 11.184 153.635 11.376 154.019 11.76C154.419 12.128 154.619 12.592 154.619 13.152C154.619 13.712 154.419 14.184 154.019 14.568C153.635 14.936 153.147 15.12 152.555 15.12ZM154.211 16.704V30H150.851V16.704H154.211ZM161.443 19.464V25.896C161.443 26.344 161.547 26.672 161.755 26.88C161.979 27.072 162.347 27.168 162.859 27.168H164.419V30H162.307C159.475 30 158.059 28.624 158.059 25.872V19.464H156.475V16.704H158.059V13.416H161.443V16.704H164.419V19.464H161.443ZM165.972 23.304C165.972 21.96 166.236 20.768 166.764 19.728C167.308 18.688 168.036 17.888 168.948 17.328C169.876 16.768 170.908 16.488 172.044 16.488C173.036 16.488 173.9 16.688 174.636 17.088C175.388 17.488 175.988 17.992 176.436 18.6V16.704H179.82V30H176.436V28.056C176.004 28.68 175.404 29.2 174.636 29.616C173.884 30.016 173.012 30.216 172.02 30.216C170.9 30.216 169.876 29.928 168.948 29.352C168.036 28.776 167.308 27.968 166.764 26.928C166.236 25.872 165.972 24.664 165.972 23.304ZM176.436 23.352C176.436 22.536 176.276 21.84 175.956 21.264C175.636 20.672 175.204 20.224 174.66 19.92C174.116 19.6 173.532 19.44 172.908 19.44C172.284 19.44 171.708 19.592 171.18 19.896C170.652 20.2 170.22 20.648 169.884 21.24C169.564 21.816 169.404 22.504 169.404 23.304C169.404 24.104 169.564 24.808 169.884 25.416C170.22 26.008 170.652 26.464 171.18 26.784C171.724 27.104 172.3 27.264 172.908 27.264C173.532 27.264 174.116 27.112 174.66 26.808C175.204 26.488 175.636 26.04 175.956 25.464C176.276 24.872 176.436 24.168 176.436 23.352ZM186.461 12.24V30H183.101V12.24H186.461Z" fill="white"/>
<path d="M3.27676 15.9249C2.79065 16.1017 1.90682 16.8088 1.28814 17.4717C0.227542 18.6208 0.183351 18.8418 0.0507761 26.5316C-0.12599 37.05 -0.170181 36.9174 5.79567 39.79C8.31459 40.9833 10.9219 41.9998 11.5848 41.9998C12.9547 41.9998 15.4294 40.8949 15.4294 40.232C15.4294 40.011 16.2249 39.3923 17.2413 38.9061C19.9811 37.4919 20.2905 36.2987 20.2905 27.5481C20.2905 16.2343 19.6276 15.483 9.90548 15.5272C6.72369 15.5272 3.76286 15.704 3.27676 15.9249ZM9.86129 19.8141C14.5898 22.068 14.634 22.1564 14.4572 31.1721C14.3246 37.4035 14.2362 38.1548 13.485 38.7294C12.1151 39.7016 10.6567 39.4807 6.72369 37.5803C3.80705 36.1661 3.01161 35.5473 2.74646 34.5751C2.5255 33.9121 2.39293 30.3766 2.39293 26.7084C2.39293 20.7421 2.48131 19.9024 3.23256 19.0627C4.42573 17.7369 5.75148 17.9137 9.86129 19.8141Z" fill="white"/>
<path d="M9.45571 28.7686C9.05567 29.9407 10.1669 31.2481 11.2336 30.7973C12.3448 30.3915 11.9448 28.0923 10.7003 27.912C10.0335 27.8218 9.67795 28.0472 9.45571 28.7686Z" fill="white"/>
<path d="M16.6889 9.92276C18.0077 10.0634 19.2835 10.4728 20.4379 11.1255C21.5921 11.7784 22.6007 12.6618 23.401 13.7194C24.2011 14.7768 24.776 15.9871 25.0903 17.2755C25.4046 18.5638 25.4519 19.9031 25.2287 21.2103M18.8599 2.96619C20.9698 3.19125 23.0111 3.84634 24.8581 4.89078C26.705 5.93527 28.3181 7.34702 29.5982 9.03899C30.8785 10.7311 31.7977 12.667 32.3006 14.7283C32.8035 16.7897 32.8793 18.933 32.5222 21.0248" stroke="white" stroke-width="3" stroke-linecap="round" stroke-linejoin="round"/>
</svg>
