<svg width="100" height="100" viewBox="0 0 100 100" fill="none" xmlns="http://www.w3.org/2000/svg">
<rect width="100" height="100" rx="10" fill="#FFFCE0"/>
<path d="M50.3008 61.5117C50.3008 61.954 49.9423 62.3125 49.5 62.3125C49.0577 62.3125 48.6992 61.954 48.6992 61.5117C48.6992 61.0694 49.0577 60.7109 49.5 60.7109C49.9423 60.7109 50.3008 61.0694 50.3008 61.5117Z" fill="#CDB900"/>
<path d="M67.3574 54.3047C67.3574 51.6552 65.2022 49.5 62.5527 49.5C59.9033 49.5 57.748 51.6552 57.748 54.3047C57.748 56.9541 59.9033 59.1094 62.5527 59.1094C65.2022 59.1094 67.3574 56.9541 67.3574 54.3047ZM62.5527 57.5078C60.7866 57.5078 59.3496 56.0708 59.3496 54.3047C59.3496 52.5386 60.7866 51.1016 62.5527 51.1016C64.3188 51.1016 65.7559 52.5386 65.7559 54.3047C65.7559 56.0708 64.3188 57.5078 62.5527 57.5078Z" fill="#CDB900"/>
<path d="M62.5527 59.1094C60.5348 59.1094 58.5226 59.9471 57.1518 61.3053C55.3476 58.9342 52.5655 57.5078 49.5 57.5078C46.5643 57.5078 43.7197 58.8472 41.8485 61.3053C40.4774 59.9474 38.4655 59.1094 36.4473 59.1094C32.4105 59.1094 29 62.4098 29 66.3164V67.918C29 68.3603 29.3585 68.7188 29.8008 68.7188H69.1992C69.6415 68.7188 70 68.3603 70 67.918V66.3164C70 62.4098 66.5895 59.1094 62.5527 59.1094ZM30.6016 66.3164C30.6016 63.2778 33.2785 60.7109 36.4473 60.7109C38.1811 60.7109 39.9006 61.4792 40.9651 62.7004C40.2613 64.0598 39.8906 65.5751 39.8906 67.1172H30.6016V66.3164ZM49.5 59.1094C53.9559 59.1094 57.5078 62.7248 57.5078 67.1172H41.4922C41.4922 62.6663 45.1167 59.1094 49.5 59.1094ZM68.3984 67.1172H59.1094C59.1094 65.5751 58.7387 64.0598 58.0349 62.7004C59.0994 61.4792 60.8189 60.7109 62.5527 60.7109C65.7215 60.7109 68.3984 63.2778 68.3984 66.3164V67.1172Z" fill="#CDB900"/>
<path d="M41.252 54.3047C41.252 51.6552 39.0967 49.5 36.4473 49.5C33.7978 49.5 31.6426 51.6552 31.6426 54.3047C31.6426 56.9541 33.7978 59.1094 36.4473 59.1094C39.0967 59.1094 41.252 56.9541 41.252 54.3047ZM36.4473 57.5078C34.6812 57.5078 33.2441 56.0708 33.2441 54.3047C33.2441 52.5386 34.6812 51.1016 36.4473 51.1016C38.2134 51.1016 39.6504 52.5386 39.6504 54.3047C39.6504 56.0708 38.2134 57.5078 36.4473 57.5078Z" fill="#CDB900"/>
<path d="M55.9062 51.1016C55.9062 47.5691 53.0325 44.6953 49.5 44.6953C45.9675 44.6953 43.0938 47.5691 43.0938 51.1016C43.0938 54.6341 45.9675 57.5078 49.5 57.5078C53.0325 57.5078 55.9062 54.6341 55.9062 51.1016ZM49.5 55.9062C46.8505 55.9062 44.6953 53.751 44.6953 51.1016C44.6953 48.4521 46.8505 46.2969 49.5 46.2969C52.1495 46.2969 54.3047 48.4521 54.3047 51.1016C54.3047 53.751 52.1495 55.9062 49.5 55.9062Z" fill="#CDB900"/>
<path d="M55.8377 34.9386C55.7435 34.6486 55.493 34.4375 55.1911 34.3937L51.7371 33.8923L50.1906 30.7304C50.0564 30.4555 49.7774 30.2812 49.4715 30.2812C49.1655 30.2812 48.8865 30.4555 48.752 30.7301L47.2058 33.8923L43.7518 34.3934C43.45 34.4372 43.1994 34.6486 43.1052 34.9386C43.0111 35.2286 43.0896 35.5467 43.3079 35.7594L45.8091 38.1971L45.2189 41.6395C45.1673 41.9398 45.2908 42.2435 45.5376 42.4225C45.7829 42.6008 46.1094 42.6261 46.3809 42.4835L49.4715 40.8584L52.5632 42.4835C52.8329 42.6255 53.1597 42.6017 53.4065 42.4225C53.653 42.2432 53.7766 41.9398 53.725 41.6392L53.1341 38.1971L55.635 35.7594C55.8533 35.5467 55.9318 35.2286 55.8377 34.9386ZM51.7143 37.3441C51.5256 37.528 51.4393 37.7933 51.484 38.0529L51.8716 40.311L49.844 39.245C49.6107 39.1224 49.3319 39.1224 49.0986 39.245L47.0716 40.311L47.4589 38.0529C47.5033 37.793 47.4169 37.528 47.2283 37.3441L45.588 35.7453L47.8543 35.4163C48.1164 35.3784 48.3425 35.2132 48.4586 34.9755L49.4715 32.9047L50.484 34.9755C50.6004 35.2136 50.8265 35.3784 51.0883 35.4163L53.3549 35.7453L51.7143 37.3441Z" fill="#CDB900"/>
<path d="M67.8068 40.9404C67.7126 40.6504 67.462 40.4393 67.1602 40.3955L64.8201 40.0555L63.7738 37.9347C63.6389 37.6613 63.3609 37.4883 63.0559 37.4883C63.0559 37.4883 63.0559 37.4883 63.0556 37.4883C62.7509 37.4883 62.4725 37.6613 62.3377 37.9347L61.2907 40.0555L58.9503 40.3955C58.6488 40.4393 58.3982 40.6504 58.304 40.9404C58.2096 41.2304 58.2881 41.5485 58.5064 41.7612L60.1996 43.4125L59.7999 45.7429C59.7486 46.0432 59.8718 46.3466 60.1186 46.5258C60.3651 46.7051 60.692 46.7289 60.9616 46.5872L63.0556 45.487L65.1488 46.5872C65.4185 46.7289 65.7457 46.7051 65.9922 46.5258C66.2387 46.3469 66.3619 46.0432 66.3106 45.7429L65.9108 43.4125L67.6044 41.7612C67.8227 41.5485 67.9009 41.2304 67.8068 40.9404V40.9404ZM64.4916 42.5598C64.3027 42.7437 64.2167 43.0087 64.2614 43.2683L64.4579 44.4144L63.4284 43.8736C63.1951 43.751 62.9164 43.751 62.6833 43.8736L61.6529 44.4147L61.8497 43.2683C61.8941 43.0087 61.8081 42.7437 61.6195 42.5598L60.7862 41.7471L61.9376 41.5801C62.1985 41.5422 62.424 41.3783 62.5407 41.1422L63.0556 40.099L63.5701 41.1418C63.6868 41.3783 63.9123 41.5422 64.1732 41.5801L65.3246 41.7471L64.4916 42.5598Z" fill="#CDB900"/>
<path d="M40.5802 40.9404C40.486 40.6504 40.2355 40.4393 39.9336 40.3955L37.5935 40.0555L36.5472 37.9347C36.4124 37.6613 36.1343 37.4883 35.8293 37.4883C35.5243 37.4883 35.2459 37.6613 35.1111 37.9347L34.0641 40.0555L31.7237 40.3955C31.4222 40.4393 31.1716 40.6504 31.0775 40.9404C30.983 41.2304 31.0615 41.5485 31.2799 41.7612L32.9731 43.4125L32.5736 45.7429C32.522 46.0432 32.6456 46.3466 32.8921 46.5258C33.1386 46.7051 33.4654 46.7289 33.7354 46.5872L35.829 45.487L37.9223 46.5872C38.1938 46.7298 38.5204 46.7041 38.7656 46.5258C39.0121 46.3469 39.1357 46.0432 39.084 45.7429L38.6843 43.4125L40.3778 41.7612C40.5961 41.5485 40.6744 41.2304 40.5802 40.9404ZM37.2648 42.5598C37.0762 42.7437 36.9901 43.0087 37.0345 43.2683L37.2313 44.4144L36.2015 43.8736C35.9685 43.751 35.6898 43.751 35.4568 43.8736L34.4261 44.4147L34.6228 43.2683C34.6675 43.0087 34.5812 42.7437 34.3926 42.5598L33.5593 41.7471L34.711 41.5801C34.9716 41.5422 35.1971 41.3783 35.3138 41.1422L35.8287 40.099L36.3432 41.1418C36.4599 41.3783 36.6855 41.5422 36.9463 41.5801L38.0978 41.7471L37.2648 42.5598Z" fill="#CDB900"/>
<path d="M53.0092 61.7594C52.6394 61.5164 52.143 61.6193 51.9003 61.989C51.6572 62.3584 51.7601 62.8548 52.1299 63.0979C52.8703 63.5843 53.4621 64.2625 53.8412 65.0589C54.0308 65.4577 54.5081 65.6282 54.9082 65.4377C55.3077 65.2478 55.4772 64.7698 55.2873 64.3707C54.7825 63.3097 53.9945 62.4066 53.0092 61.7594V61.7594Z" fill="#CDB900"/>
</svg>
