<svg width="124" height="20" viewBox="0 0 124 20" fill="none" xmlns="http://www.w3.org/2000/svg">
<path d="M9.04894 2.92705C9.3483 2.00574 10.6517 2.00574 10.9511 2.92705L12.0206 6.21885C12.1545 6.63087 12.5385 6.90983 12.9717 6.90983H16.4329C17.4016 6.90983 17.8044 8.14945 17.0207 8.71885L14.2205 10.7533C13.87 11.0079 13.7234 11.4593 13.8572 11.8713L14.9268 15.1631C15.2261 16.0844 14.1717 16.8506 13.388 16.2812L10.5878 14.2467C10.2373 13.9921 9.7627 13.9921 9.41221 14.2467L6.61204 16.2812C5.82833 16.8506 4.77385 16.0844 5.0732 15.1631L6.14277 11.8713C6.27665 11.4593 6.12999 11.0079 5.7795 10.7533L2.97933 8.71885C2.19562 8.14945 2.59839 6.90983 3.56712 6.90983H7.02832C7.46154 6.90983 7.8455 6.63087 7.97937 6.21885L9.04894 2.92705Z" fill="#FFDA16"/>
<path d="M29.0489 2.92705C29.3483 2.00574 30.6517 2.00574 30.9511 2.92705L32.0206 6.21885C32.1545 6.63087 32.5385 6.90983 32.9717 6.90983H36.4329C37.4016 6.90983 37.8044 8.14945 37.0207 8.71885L34.2205 10.7533C33.87 11.0079 33.7234 11.4593 33.8572 11.8713L34.9268 15.1631C35.2261 16.0844 34.1717 16.8506 33.388 16.2812L30.5878 14.2467C30.2373 13.9921 29.7627 13.9921 29.4122 14.2467L26.612 16.2812C25.8283 16.8506 24.7739 16.0844 25.0732 15.1631L26.1428 11.8713C26.2766 11.4593 26.13 11.0079 25.7795 10.7533L22.9793 8.71885C22.1956 8.14945 22.5984 6.90983 23.5671 6.90983H27.0283C27.4615 6.90983 27.8455 6.63087 27.9794 6.21885L29.0489 2.92705Z" fill="#FFDA16"/>
<path d="M49.0489 2.92705C49.3483 2.00574 50.6517 2.00574 50.9511 2.92705L52.0206 6.21885C52.1545 6.63087 52.5385 6.90983 52.9717 6.90983H56.4329C57.4016 6.90983 57.8044 8.14945 57.0207 8.71885L54.2205 10.7533C53.87 11.0079 53.7234 11.4593 53.8572 11.8713L54.9268 15.1631C55.2261 16.0844 54.1717 16.8506 53.388 16.2812L50.5878 14.2467C50.2373 13.9921 49.7627 13.9921 49.4122 14.2467L46.612 16.2812C45.8283 16.8506 44.7739 16.0844 45.0732 15.1631L46.1428 11.8713C46.2766 11.4593 46.13 11.0079 45.7795 10.7533L42.9793 8.71885C42.1956 8.14945 42.5984 6.90983 43.5671 6.90983H47.0283C47.4615 6.90983 47.8455 6.63087 47.9794 6.21885L49.0489 2.92705Z" fill="#FFDA16"/>
<path d="M69.0489 2.92705C69.3483 2.00574 70.6517 2.00574 70.9511 2.92705L72.0206 6.21885C72.1545 6.63087 72.5385 6.90983 72.9717 6.90983H76.4329C77.4016 6.90983 77.8044 8.14945 77.0207 8.71885L74.2205 10.7533C73.87 11.0079 73.7234 11.4593 73.8572 11.8713L74.9268 15.1631C75.2261 16.0844 74.1717 16.8506 73.388 16.2812L70.5878 14.2467C70.2373 13.9921 69.7627 13.9921 69.4122 14.2467L66.612 16.2812C65.8283 16.8506 64.7739 16.0844 65.0732 15.1631L66.1428 11.8713C66.2766 11.4593 66.13 11.0079 65.7795 10.7533L62.9793 8.71885C62.1956 8.14945 62.5984 6.90983 63.5671 6.90983H67.0283C67.4615 6.90983 67.8455 6.63087 67.9794 6.21885L69.0489 2.92705Z" fill="#FFDA16"/>
<path d="M89.0489 2.92705C89.3483 2.00574 90.6517 2.00574 90.9511 2.92705L92.0206 6.21885C92.1545 6.63087 92.5385 6.90983 92.9717 6.90983H96.4329C97.4016 6.90983 97.8044 8.14945 97.0207 8.71885L94.2205 10.7533C93.87 11.0079 93.7234 11.4593 93.8572 11.8713L94.9268 15.1631C95.2261 16.0844 94.1717 16.8506 93.388 16.2812L90.5878 14.2467C90.2373 13.9921 89.7627 13.9921 89.4122 14.2467L86.612 16.2812C85.8283 16.8506 84.7739 16.0844 85.0732 15.1631L86.1428 11.8713C86.2766 11.4593 86.13 11.0079 85.7795 10.7533L82.9793 8.71885C82.1956 8.14945 82.5984 6.90983 83.5671 6.90983H87.0283C87.4615 6.90983 87.8455 6.63087 87.9794 6.21885L89.0489 2.92705Z" fill="#FFDA16"/>
<path d="M112.276 8.272H108.064V11.008C108.248 10.752 108.52 10.544 108.88 10.384C109.24 10.216 109.628 10.132 110.044 10.132C110.708 10.132 111.248 10.272 111.664 10.552C112.08 10.824 112.376 11.18 112.552 11.62C112.736 12.052 112.828 12.512 112.828 13C112.828 13.576 112.72 14.092 112.504 14.548C112.288 15.004 111.956 15.364 111.508 15.628C111.068 15.892 110.52 16.024 109.864 16.024C109.024 16.024 108.344 15.808 107.824 15.376C107.304 14.944 106.988 14.368 106.876 13.648H107.944C108.048 14.104 108.268 14.46 108.604 14.716C108.94 14.972 109.364 15.1 109.876 15.1C110.508 15.1 110.984 14.912 111.304 14.536C111.624 14.152 111.784 13.648 111.784 13.024C111.784 12.4 111.624 11.92 111.304 11.584C110.984 11.24 110.512 11.068 109.888 11.068C109.464 11.068 109.092 11.172 108.772 11.38C108.46 11.58 108.232 11.856 108.088 12.208H107.056V7.312H112.276V8.272ZM114.807 16.072C114.599 16.072 114.423 16 114.279 15.856C114.135 15.712 114.063 15.536 114.063 15.328C114.063 15.12 114.135 14.944 114.279 14.8C114.423 14.656 114.599 14.584 114.807 14.584C115.007 14.584 115.175 14.656 115.311 14.8C115.455 14.944 115.527 15.12 115.527 15.328C115.527 15.536 115.455 15.712 115.311 15.856C115.175 16 115.007 16.072 114.807 16.072ZM116.799 11.572C116.799 10.196 117.023 9.124 117.471 8.356C117.919 7.58 118.703 7.192 119.823 7.192C120.935 7.192 121.715 7.58 122.163 8.356C122.611 9.124 122.835 10.196 122.835 11.572C122.835 12.972 122.611 14.06 122.163 14.836C121.715 15.612 120.935 16 119.823 16C118.703 16 117.919 15.612 117.471 14.836C117.023 14.06 116.799 12.972 116.799 11.572ZM121.755 11.572C121.755 10.876 121.707 10.288 121.611 9.808C121.523 9.32 121.335 8.928 121.047 8.632C120.767 8.336 120.359 8.188 119.823 8.188C119.279 8.188 118.863 8.336 118.575 8.632C118.295 8.928 118.107 9.32 118.011 9.808C117.923 10.288 117.879 10.876 117.879 11.572C117.879 12.292 117.923 12.896 118.011 13.384C118.107 13.872 118.295 14.264 118.575 14.56C118.863 14.856 119.279 15.004 119.823 15.004C120.359 15.004 120.767 14.856 121.047 14.56C121.335 14.264 121.523 13.872 121.611 13.384C121.707 12.896 121.755 12.292 121.755 11.572Z" fill="#BABABA"/>
</svg>
