<svg width="73" height="72" viewBox="0 0 73 72" fill="none" xmlns="http://www.w3.org/2000/svg">
<g filter="url(#filter0_d_130_6)">
<circle cx="36.8422" cy="32" r="22" fill="white"/>
</g>
<path d="M43.158 31.5731V29.3039C41.9573 29.3039 41.0409 29.0203 40.4496 28.469C39.8427 27.8398 39.5027 27.0429 39.4882 26.2157V26.0519L37.0642 26V35.2167C36.9811 35.6188 36.7605 35.9887 36.4323 36.2763C36.1041 36.564 35.6841 36.7556 35.229 36.8253C34.7739 36.8951 34.3055 36.8395 33.8872 36.6662C33.4689 36.4928 33.1207 36.2101 32.8897 35.8561C32.6587 35.5021 32.556 35.0939 32.5954 34.6865C32.6349 34.2792 32.8145 33.8924 33.1102 33.5784C33.4059 33.2643 33.8033 33.0381 34.2489 32.9302C34.6944 32.8224 35.1666 32.8382 35.6017 32.9754V30.7781C35.348 30.7413 35.0914 30.7226 34.8343 30.7222C33.9094 30.7222 33.0053 30.9649 32.2363 31.4197C31.4673 31.8745 30.8679 32.5209 30.5139 33.2772C30.16 34.0335 30.0674 34.8657 30.2478 35.6686C30.4283 36.4714 30.8736 37.2089 31.5276 37.7877C32.1816 38.3666 33.0149 38.7608 33.922 38.9205C34.8292 39.0802 35.7694 38.9982 36.6239 38.6849C37.4784 38.3717 38.2088 37.8412 38.7226 37.1605C39.2365 36.4799 39.5107 35.6797 39.5107 34.8611C39.5102 34.6915 39.4982 34.522 39.4746 34.3537V30.6982C40.5768 31.3074 41.8592 31.6121 43.158 31.5731Z" fill="#282C6D"/>
<defs>
<filter id="filter0_d_130_6" x="0.842163" y="0" width="72" height="72" filterUnits="userSpaceOnUse" color-interpolation-filters="sRGB">
<feFlood flood-opacity="0" result="BackgroundImageFix"/>
<feColorMatrix in="SourceAlpha" type="matrix" values="0 0 0 0 0 0 0 0 0 0 0 0 0 0 0 0 0 0 127 0" result="hardAlpha"/>
<feOffset dy="4"/>
<feGaussianBlur stdDeviation="7"/>
<feColorMatrix type="matrix" values="0 0 0 0 0 0 0 0 0 0 0 0 0 0 0 0 0 0 0.15 0"/>
<feBlend mode="normal" in2="BackgroundImageFix" result="effect1_dropShadow_130_6"/>
<feBlend mode="normal" in="SourceGraphic" in2="effect1_dropShadow_130_6" result="shape"/>
</filter>
</defs>
</svg>
