<svg width="62" height="62" viewBox="0 0 62 62" fill="none" xmlns="http://www.w3.org/2000/svg">
<g filter="url(#filter0_d_217_6)">
<circle cx="31" cy="27" r="17" fill="white"/>
</g>
<path d="M34.0666 28.3333C33.9333 28.2666 33.0666 27.8666 32.9333 27.8C32.8 27.7333 32.6666 27.7333 32.5333 27.8666C32.4 28 32.1333 28.4 32 28.5333C31.9333 28.6666 31.8 28.6666 31.6666 28.6C31.2 28.4 30.7333 28.1333 30.3333 27.8C30 27.4666 29.6666 27.0666 29.4 26.6666C29.3333 26.5333 29.4 26.4 29.4666 26.3333C29.5333 26.2666 29.6 26.1333 29.7333 26.0667C29.8 26 29.8666 25.8666 29.8666 25.8C29.9333 25.7333 29.9333 25.6 29.8666 25.5333C29.8 25.4667 29.4666 24.6667 29.3333 24.3333C29.2666 23.8667 29.1333 23.8667 29 23.8667H28.6666C28.5333 23.8667 28.3333 24 28.2666 24.0667C27.8666 24.4667 27.6666 24.9333 27.6666 25.4667C27.7333 26.0666 27.9333 26.6666 28.3333 27.2C29.0666 28.2666 30 29.1333 31.1333 29.6666C31.4666 29.8 31.7333 29.9333 32.0666 30C32.4 30.1333 32.7333 30.1333 33.1333 30.0666C33.6 30 34 29.6666 34.2666 29.2666C34.4 29 34.4 28.7333 34.3333 28.4666L34.0666 28.3333ZM35.7333 22.2667C33.1333 19.6667 28.9333 19.6667 26.3333 22.2667C24.2 24.4 23.8 27.6666 25.2666 30.2666L24.3333 33.6666L27.8666 32.7333C28.8666 33.2666 29.9333 33.5333 31 33.5333C34.6666 33.5333 37.6 30.6 37.6 26.9333C37.6666 25.2 36.9333 23.5333 35.7333 22.2667ZM33.9333 31.6C33.0666 32.1333 32.0666 32.4666 31 32.4666C30 32.4666 29.0666 32.2 28.2 31.7333L28 31.6L25.9333 32.1333L26.4666 30.1333L26.3333 29.9333C24.7333 27.2666 25.5333 23.9333 28.1333 22.2667C30.7333 20.6 34.0666 21.4667 35.6666 24C37.2666 26.6 36.5333 30 33.9333 31.6Z" fill="#040844"/>
<defs>
<filter id="filter0_d_217_6" x="0" y="0" width="62" height="62" filterUnits="userSpaceOnUse" color-interpolation-filters="sRGB">
<feFlood flood-opacity="0" result="BackgroundImageFix"/>
<feColorMatrix in="SourceAlpha" type="matrix" values="0 0 0 0 0 0 0 0 0 0 0 0 0 0 0 0 0 0 127 0" result="hardAlpha"/>
<feOffset dy="4"/>
<feGaussianBlur stdDeviation="7"/>
<feColorMatrix type="matrix" values="0 0 0 0 0 0 0 0 0 0 0 0 0 0 0 0 0 0 0.15 0"/>
<feBlend mode="normal" in2="BackgroundImageFix" result="effect1_dropShadow_217_6"/>
<feBlend mode="normal" in="SourceGraphic" in2="effect1_dropShadow_217_6" result="shape"/>
</filter>
</defs>
</svg>
