<svg width="62" height="62" viewBox="0 0 62 62" fill="none" xmlns="http://www.w3.org/2000/svg">
<g filter="url(#filter0_d_217_9)">
<circle cx="31" cy="27" r="17" fill="white"/>
</g>
<path d="M36.4583 25.2596C36.4851 24.4843 36.3155 23.7148 35.9654 23.0226C35.7278 22.7385 35.3981 22.5468 35.0337 22.4809C33.5265 22.3441 32.0131 22.2881 30.5 22.313C28.9923 22.2869 27.4844 22.3412 25.9825 22.4755C25.6855 22.5295 25.4108 22.6688 25.1916 22.8763C24.7041 23.3259 24.65 24.0951 24.5958 24.7451C24.5172 25.9137 24.5172 27.0864 24.5958 28.2551C24.6115 28.6209 24.6659 28.984 24.7583 29.3384C24.8236 29.612 24.9558 29.8651 25.1429 30.0751C25.3635 30.2936 25.6447 30.4408 25.95 30.4976C27.1178 30.6417 28.2944 30.7014 29.4708 30.6763C31.3666 30.7034 33.0296 30.6763 34.9958 30.5246C35.3086 30.4714 35.5977 30.324 35.8246 30.1021C35.9762 29.9504 36.0895 29.7647 36.155 29.5605C36.3487 28.9661 36.4438 28.3439 36.4366 27.7188C36.4583 27.4155 36.4583 25.5846 36.4583 25.2596ZM29.2758 28.0438V24.6909L32.4825 26.3755C31.5833 26.8738 30.3971 27.4371 29.2758 28.0438Z" fill="#040844"/>
<defs>
<filter id="filter0_d_217_9" x="0" y="0" width="62" height="62" filterUnits="userSpaceOnUse" color-interpolation-filters="sRGB">
<feFlood flood-opacity="0" result="BackgroundImageFix"/>
<feColorMatrix in="SourceAlpha" type="matrix" values="0 0 0 0 0 0 0 0 0 0 0 0 0 0 0 0 0 0 127 0" result="hardAlpha"/>
<feOffset dy="4"/>
<feGaussianBlur stdDeviation="7"/>
<feColorMatrix type="matrix" values="0 0 0 0 0 0 0 0 0 0 0 0 0 0 0 0 0 0 0.15 0"/>
<feBlend mode="normal" in2="BackgroundImageFix" result="effect1_dropShadow_217_9"/>
<feBlend mode="normal" in="SourceGraphic" in2="effect1_dropShadow_217_9" result="shape"/>
</filter>
</defs>
</svg>
